<mxfile host="Electron" agent="Mozilla/5.0 (Macintosh; Intel Mac OS X 10_15_7) AppleWebKit/537.36 (KHTML, like Gecko) draw.io/24.7.17 Chrome/128.0.6613.36 Electron/32.0.1 Safari/537.36" version="24.7.17">
  <diagram id="prtHgNgQTEPvFCAcTncT" name="Page-1">
    <mxGraphModel dx="954" dy="674" grid="1" gridSize="10" guides="1" tooltips="1" connect="1" arrows="1" fold="1" page="1" pageScale="1" pageWidth="827" pageHeight="1169" math="0" shadow="0">
      <root>
        <mxCell id="0" />
        <mxCell id="1" parent="0" />
        <mxCell id="QBrQXk-q5AiPJv90FRmJ-1" value="Pool" style="swimlane;childLayout=stackLayout;resizeParent=1;resizeParentMax=0;startSize=20;horizontal=0;horizontalStack=1;" vertex="1" parent="1">
          <mxGeometry x="220" y="90" width="750" height="480" as="geometry" />
        </mxCell>
        <mxCell id="QBrQXk-q5AiPJv90FRmJ-2" value="Lane 1" style="swimlane;startSize=20;" vertex="1" parent="QBrQXk-q5AiPJv90FRmJ-1">
          <mxGeometry x="20" width="130" height="480" as="geometry" />
        </mxCell>
        <mxCell id="QBrQXk-q5AiPJv90FRmJ-9" value="" style="rounded=0;whiteSpace=wrap;html=1;" vertex="1" parent="QBrQXk-q5AiPJv90FRmJ-2">
          <mxGeometry x="15" y="50" width="100" height="50" as="geometry" />
        </mxCell>
        <mxCell id="QBrQXk-q5AiPJv90FRmJ-8" value="Lane 1" style="swimlane;startSize=20;" vertex="1" parent="QBrQXk-q5AiPJv90FRmJ-1">
          <mxGeometry x="150" width="120" height="480" as="geometry" />
        </mxCell>
        <mxCell id="QBrQXk-q5AiPJv90FRmJ-10" value="" style="rounded=0;whiteSpace=wrap;html=1;" vertex="1" parent="QBrQXk-q5AiPJv90FRmJ-8">
          <mxGeometry x="10" y="150" width="100" height="50" as="geometry" />
        </mxCell>
        <mxCell id="QBrQXk-q5AiPJv90FRmJ-3" value="Lane 2" style="swimlane;startSize=20;" vertex="1" parent="QBrQXk-q5AiPJv90FRmJ-1">
          <mxGeometry x="270" width="120" height="480" as="geometry" />
        </mxCell>
        <mxCell id="QBrQXk-q5AiPJv90FRmJ-4" value="Lane 3" style="swimlane;startSize=20;" vertex="1" parent="QBrQXk-q5AiPJv90FRmJ-1">
          <mxGeometry x="390" width="120" height="480" as="geometry" />
        </mxCell>
        <mxCell id="QBrQXk-q5AiPJv90FRmJ-6" value="Lane 3" style="swimlane;startSize=20;" vertex="1" parent="QBrQXk-q5AiPJv90FRmJ-1">
          <mxGeometry x="510" width="120" height="480" as="geometry" />
        </mxCell>
        <mxCell id="QBrQXk-q5AiPJv90FRmJ-7" value="Lane 3" style="swimlane;startSize=20;" vertex="1" parent="QBrQXk-q5AiPJv90FRmJ-1">
          <mxGeometry x="630" width="120" height="480" as="geometry" />
        </mxCell>
        <mxCell id="QBrQXk-q5AiPJv90FRmJ-11" value="" style="rounded=0;whiteSpace=wrap;html=1;" vertex="1" parent="QBrQXk-q5AiPJv90FRmJ-7">
          <mxGeometry x="10" y="310" width="100" height="50" as="geometry" />
        </mxCell>
        <mxCell id="QBrQXk-q5AiPJv90FRmJ-12" value="" style="endArrow=classic;html=1;rounded=0;exitX=0.5;exitY=1;exitDx=0;exitDy=0;" edge="1" parent="1" source="QBrQXk-q5AiPJv90FRmJ-11">
          <mxGeometry width="50" height="50" relative="1" as="geometry">
            <mxPoint x="490" y="350" as="sourcePoint" />
            <mxPoint x="910" y="490" as="targetPoint" />
          </mxGeometry>
        </mxCell>
        <mxCell id="QBrQXk-q5AiPJv90FRmJ-13" value="" style="edgeStyle=elbowEdgeStyle;elbow=vertical;endArrow=classic;html=1;curved=0;rounded=0;endSize=8;startSize=8;exitX=0.5;exitY=1;exitDx=0;exitDy=0;" edge="1" parent="1" source="QBrQXk-q5AiPJv90FRmJ-9">
          <mxGeometry width="50" height="50" relative="1" as="geometry">
            <mxPoint x="490" y="480" as="sourcePoint" />
            <mxPoint x="430" y="240" as="targetPoint" />
          </mxGeometry>
        </mxCell>
        <mxCell id="QBrQXk-q5AiPJv90FRmJ-14" value="" style="shape=ext;double=1;rounded=0;whiteSpace=wrap;html=1;" vertex="1" parent="1">
          <mxGeometry x="230" y="680" width="740" height="260" as="geometry" />
        </mxCell>
        <mxCell id="QBrQXk-q5AiPJv90FRmJ-15" value="" style="shape=actor;whiteSpace=wrap;html=1;" vertex="1" parent="1">
          <mxGeometry x="580" y="980" width="40" height="60" as="geometry" />
        </mxCell>
      </root>
    </mxGraphModel>
  </diagram>
</mxfile>
